<svg xmlns="http://www.w3.org/2000/svg" version="1.1" width="3300" height="2000"><g id="Notes"><style>
    text {
      font-family: monospace;
      text-anchor: middle;
    }
    text.emphasis {
      font-weight:bold;
    }
    text.lanchor {
      text-anchor: start;
    }
  </style><rect height="2200" id="artboard" fill="white" width="3300" x="0" y="0"/><line id="" style="fill:none;stroke:black;stroke-width:0.5;" x1="263" x2="3036" y1="292" y2="292"/><text class="lanchor emphasis" transform="matrix(1 0 0 1 263 322)">Weight/Scale Variations</text><text transform="matrix(1 0 0 1 559.711 322)">Ultralight</text><text transform="matrix(1 0 0 1 856.422 322)">Thin</text><text transform="matrix(1 0 0 1 1153.13 322)">Light</text><text transform="matrix(1 0 0 1 1449.84 322)">Regular</text><text transform="matrix(1 0 0 1 1746.56 322)">Medium</text><text transform="matrix(1 0 0 1 2043.27 322)">Semibold</text><text transform="matrix(1 0 0 1 2339.98 322)">Bold</text><text transform="matrix(1 0 0 1 2636.69 322)">Heavy</text><text transform="matrix(1 0 0 1 2933.4 322)">Black</text><text id="template-version" style="text-anchor: end;" transform="matrix(1 0 0 1 3036 1933)">Template v.1.0</text><text class="lanchor" transform="matrix(1 0 0 1 263 726)">Small</text><text class="lanchor" transform="matrix(1 0 0 1 263 1156)">Medium</text><text class="lanchor" transform="matrix(1 0 0 1 263 1586)">Large</text></g><g id="Guides"><g id="H-reference" style="fill:#27AAE1;stroke:none;" transform="matrix(1 0 0 1 339 696)"><path d="M 54.9316 0 L 57.666 0 L 30.5664 -70.459 L 28.0762 -70.459 L 0.976562 0 L 3.66211 0 L 12.9395 -24.4629 L 45.7031 -24.4629 Z M 29.1992 -67.0898 L 29.4434 -67.0898 L 44.8242 -26.709 L 13.8184 -26.709 Z"/></g><line id="Baseline-S" style="fill:none;stroke:#27AAE1;opacity:1;stroke-width:0.577;" x1="263" x2="3036" y1="696" y2="696"/><line id="Capline-S" style="fill:none;stroke:#27AAE1;opacity:1;stroke-width:0.577;" x1="263" x2="3036" y1="625.541" y2="625.541"/><g id="H-reference" style="fill:#27AAE1;stroke:none;" transform="matrix(1 0 0 1 339 1126)"><path d="M 54.9316 0 L 57.666 0 L 30.5664 -70.459 L 28.0762 -70.459 L 0.976562 0 L 3.66211 0 L 12.9395 -24.4629 L 45.7031 -24.4629 Z M 29.1992 -67.0898 L 29.4434 -67.0898 L 44.8242 -26.709 L 13.8184 -26.709 Z"/></g><line id="Baseline-M" style="fill:none;stroke:#27AAE1;opacity:1;stroke-width:0.577;" x1="263" x2="3036" y1="1126" y2="1126"/><line id="Capline-M" style="fill:none;stroke:#27AAE1;opacity:1;stroke-width:0.577;" x1="263" x2="3036" y1="1055.54" y2="1055.54"/><g id="H-reference" style="fill:#27AAE1;stroke:none;" transform="matrix(1 0 0 1 339 1556)"><path d="M 54.9316 0 L 57.666 0 L 30.5664 -70.459 L 28.0762 -70.459 L 0.976562 0 L 3.66211 0 L 12.9395 -24.4629 L 45.7031 -24.4629 Z M 29.1992 -67.0898 L 29.4434 -67.0898 L 44.8242 -26.709 L 13.8184 -26.709 Z"/></g><line id="Baseline-L" style="fill:none;stroke:#27AAE1;opacity:1;stroke-width:0.577;" x1="263" x2="3036" y1="1556" y2="1556"/><line id="Capline-L" style="fill:none;stroke:#27AAE1;opacity:1;stroke-width:0.577;" x1="263" x2="3036" y1="1485.54" y2="1485.54"/><rect height="119.336" id="left-margin" style="fill:darkred;stroke:none;opacity:0.4;" width="12.4512" x="1394.06" y="1030.79"/><rect height="119.336" id="right-margin" style="fill:darkgreen;stroke:none;opacity:0.4;" width="12.4512" x="1502.5112" y="1030.79"/><rect x="1406.5112" y="1045" width="96" height="96" fill="none" stroke="blue" stroke-dasharray="5"/><rect x="1394.06" y="1030.79" width="120.9024" height="119.336" fill="none" stroke="blue"/></g><g id="Symbols"><g id="Bold-L" transform="matrix(1 0 0 1 2266 1556)"><path d="M722.4 3083.345 V2518.97 Q619.2 2464.145 525.6750000000001 2373.845 Q432.15000000000003 2283.545 361.2 2165.8325 Q290.25 2048.12 249.9375 1909.4450000000002 Q209.625 1770.77 209.625 1615.9700000000003 Q209.625 1083.8450000000003 584.1732750000001 745.22 Q958.7215500000001 406.595 1548.448275 406.595 Q2138.175 406.595 2512.275 745.22 Q2886.375 1083.8450000000003 2886.375 1615.9700000000003 Q2886.375 1770.77 2846.0625 1909.4450000000002 Q2805.75 2048.12 2734.8 2165.8325 Q2663.85 2283.545 2570.3250000000003 2373.845 Q2476.8 2464.145 2373.6 2518.97 V3083.345 H722.4 Z M1028.775 2825.345 H1125.525 V3083.345 H1342.673925 V2825.345 H1753.3260750000002 V3083.345 H1970.4750000000001 V2825.345 H2067.225 V2351.27 Q2186.55 2299.67 2281.6875 2225.495 Q2376.8250000000003 2151.32 2442.9375 2057.795 Q2509.05 1964.27 2546.1375000000003 1852.9462250000001 Q2583.225 1741.619225 2583.225 1616.4666499999998 Q2583.225 1209.7232 2296.4870250000004 959.7341 Q2009.7458250000002 709.745 1548.4257 709.745 Q1087.1023500000001 709.745 801.5511750000001 959.7631250000001 Q516.0 1209.784475 516.0 1616.5763000000002 Q516.0 1741.745 551.475 1853.0075000000002 Q586.95 1964.27 653.0625 2057.795 Q719.1750000000001 2151.32 814.3125 2225.495 Q909.45 2299.67 1028.775 2351.27 V2825.345 Z M1306.125 2286.77 H1789.875 L1548.0 1803.02 L1306.125 2286.77 Z M1097.328825 1832.045 Q1202.925 1832.045 1275.4875 1758.653675 Q1348.05 1685.265575 1348.05 1582.8911750000002 Q1348.05 1477.295 1275.6003750000002 1404.7325 Q1203.1539750000002 1332.17 1096.612875 1332.17 Q993.3000000000001 1332.17 920.7375000000001 1404.6196249999998 Q848.1750000000001 1477.066025 848.1750000000001 1583.607125 Q848.1750000000001 1686.92 921.566325 1759.4825 Q994.9544249999999 1832.045 1097.328825 1832.045 Z M2000.3288249999998 1832.045 Q2105.925 1832.045 2178.4875 1758.653675 Q2251.05 1685.265575 2251.05 1582.8911750000002 Q2251.05 1477.295 2178.600375 1404.7325 Q2106.153975 1332.17 1999.612875 1332.17 Q1896.3 1332.17 1823.7375 1404.6196249999998 Q1751.175 1477.066025 1751.175 1583.607125 Q1751.175 1686.92 1824.5663249999998 1759.4825 Q1897.9544250000001 1832.045 2000.3288249999998 1832.045 Z M1028.775 2825.345 V2351.27 Q909.45 2299.67 814.3125 2225.495 Q719.1750000000001 2151.32 653.0625 2057.795 Q586.95 1964.27 551.475 1852.9462250000001 Q516.0 1741.619225 516.0 1616.4666499999998 Q516.0 1209.7232 802.1220000000001 959.7341 Q1088.2472249999998 709.745 1548.570825 709.745 Q2008.89765 709.745 2296.061325 959.7631250000001 Q2583.225 1209.784475 2583.225 1616.5763000000002 Q2583.225 1741.745 2546.1375000000003 1853.0075000000002 Q2509.05 1964.27 2442.9375 2057.795 Q2376.8250000000003 2151.32 2281.6875 2225.495 Q2186.55 2299.67 2067.225 2351.27 V2825.345 H1970.4750000000001 V2631.845 H1753.3260750000002 V2825.345 H1342.673925 V2631.845 H1125.525 V2825.345 H1028.775 Z"/></g><g id="Semibold-L" transform="matrix(1 0 0 1 1970.27 1556)"><path d="M744.8331 3062.3147750000003 V2504.9477 Q636.0248250000001 2451.525575 541.8000000000001 2362.62845 Q447.5719500000001 2273.7313249999997 378.024825 2157.418475 Q308.4777 2041.10885 269.568075 1903.8367250000001 Q230.655225 1766.5646000000002 230.655225 1615.9700000000003 Q230.655225 1093.6586750000001 599.4017249999999 760.64195 Q968.145 427.625225 1548.25155 427.625225 Q2128.361325 427.625225 2496.85305 760.64195 Q2865.344775 1093.6586750000001 2865.344775 1615.9700000000003 Q2865.344775 1766.5646000000002 2826.4319250000003 1903.8367250000001 Q2787.5223 2041.10885 2717.975175 2157.418475 Q2648.42805 2273.7313249999997 2554.2000000000003 2362.62845 Q2459.975175 2451.525575 2351.1669 2504.9477 V3062.3147750000003 H744.8331 Z M1002.1365000000001 2832.35615 H1140.94695 V3062.3147750000003 H1347.814575 V2832.35615 H1748.185425 V3062.3147750000003 H1955.05305 V2832.35615 H2093.8635 V2358.28115 Q2213.1885 2313.6922999999997 2308.326 2240.9169500000003 Q2403.4635 2168.144825 2470.27905 2072.5171250000003 Q2537.0913750000004 1976.8894249999998 2573.47905 1861.3570250000002 Q2609.8635 1745.8278500000001 2609.8635 1616.4666499999998 Q2609.8635 1198.6808 2315.991825 940.8936499999999 Q2022.1169250000003 683.1065000000001 1548.299925 683.1065000000001 Q1074.48615 683.1065000000001 781.220775 940.9226749999999 Q487.95862500000004 1198.742075 487.95862500000004 1616.5763000000002 Q487.95862500000004 1745.9504000000002 523.433625 1861.4215250000002 Q558.908625 1976.8894249999998 625.72095 2072.5171250000003 Q692.5365 2168.144825 787.6740000000001 2240.9169500000003 Q882.8115 2313.6922999999997 1002.1365000000001 2358.28115 V2832.35615 Z M1327.155225 2247.512075 H1768.8447750000003 L1548.0 1805.82575 L1327.155225 2247.512075 Z M1097.0934000000002 1822.2313250000002 Q1197.3167250000001 1822.2313250000002 1267.0734750000001 1751.881175 Q1336.83345 1681.5310249999998 1336.83345 1583.1266 Q1336.83345 1482.9032750000001 1267.015425 1413.146525 Q1197.1974 1343.3865500000002 1096.4419500000001 1343.3865500000002 Q997.5053999999999 1343.3865500000002 927.74865 1413.2045750000002 Q857.9886750000001 1483.0226000000002 857.9886750000001 1583.7780500000003 Q857.9886750000001 1682.7146000000002 928.3388250000002 1752.4713500000003 Q998.688975 1822.2313250000002 1097.0934000000002 1822.2313250000002 Z M2000.0934 1822.2313250000002 Q2100.316725 1822.2313250000002 2170.073475 1751.881175 Q2239.83345 1681.5310249999998 2239.83345 1583.1266 Q2239.83345 1482.9032750000001 2170.015425 1413.146525 Q2100.1974 1343.3865500000002 1999.44195 1343.3865500000002 Q1900.5054 1343.3865500000002 1830.74865 1413.2045750000002 Q1760.988675 1483.0226000000002 1760.988675 1583.7780500000003 Q1760.988675 1682.7146000000002 1831.338825 1752.4713500000003 Q1901.6889750000003 1822.2313250000002 2000.0934 1822.2313250000002 Z M1002.1365000000001 2832.35615 V2358.28115 Q882.8115 2313.6922999999997 787.6740000000001 2240.9169500000003 Q692.5365 2168.144825 625.72095 2072.5171250000003 Q558.908625 1976.8894249999998 523.433625 1861.3570250000002 Q487.95862500000004 1745.8278500000001 487.95862500000004 1616.4666499999998 Q487.95862500000004 1198.6808 781.485225 940.8936499999999 Q1075.0086000000001 683.1065000000001 1548.2612250000002 683.1065000000001 Q2021.51385 683.1065000000001 2315.688675 940.9226749999999 Q2609.8635 1198.742075 2609.8635 1616.5763000000002 Q2609.8635 1745.9504000000002 2573.47905 1861.4215250000002 Q2537.0913750000004 1976.8894249999998 2470.27905 2072.5171250000003 Q2403.4635 2168.144825 2308.326 2240.9169500000003 Q2213.1885 2313.6922999999997 2093.8635 2358.28115 V2832.35615 H1955.05305 V2638.85615 H1748.185425 V2832.35615 H1347.814575 V2638.85615 H1140.94695 V2832.35615 H1002.1365000000001 Z"/></g><g id="Medium-L" transform="matrix(1 0 0 1 1674.31 1556)"><path d="M761.66115 3046.538075 V2494.4309749999998 Q648.64425 2442.0602 553.8937500000001 2354.214425 Q459.14325 2266.36865 390.64425 2151.1103749999997 Q322.148475 2035.8521 284.2902 1899.6313249999998 Q246.431925 1763.4073250000001 246.431925 1615.9700000000003 Q246.431925 1101.02135 610.824675 772.21325 Q975.2142 443.401925 1548.1064250000002 443.401925 Q2120.99865 443.401925 2485.28175 772.21325 Q2849.568075 1101.02135 2849.568075 1615.9700000000003 Q2849.568075 1763.4073250000001 2811.7098 1899.6313249999998 Q2773.851525 2035.8521 2705.35575 2151.1103749999997 Q2636.85675 2266.36865 2542.1062500000003 2354.214425 Q2447.35575 2442.0602 2334.33885 2494.4309749999998 V3046.538075 H761.66115 Z M982.1544 2837.6129 H1152.51825 V3046.538075 H1351.671675 V2837.6129 H1744.328325 V3046.538075 H1943.4817500000001 V2837.6129 H2113.8456 V2363.5379 Q2233.1706 2324.209025 2328.3081 2252.48825 Q2423.4456 2180.7642499999997 2490.786825 2083.559525 Q2558.124825 1986.3547999999996 2593.986825 1867.6683500000004 Q2629.8456 1748.9819000000002 2629.8456 1616.4666499999998 Q2629.8456 1190.399 2330.620425 926.7616999999999 Q2031.39525 663.1244 1548.2064 663.1244 Q1065.020775 663.1244 765.972975 926.790725 Q466.92517499999997 1190.460275 466.92517499999997 1616.5763000000002 Q466.92517499999997 1749.1076750000002 502.400175 1867.7296250000004 Q537.875175 1986.3547999999996 605.2131750000001 2083.559525 Q672.5544000000001 2180.7642499999997 767.6919 2252.48825 Q862.8294 2324.209025 982.1544 2363.5379 V2837.6129 Z M1342.931925 2218.0646 H1753.068075 L1548.0 1807.9284500000003 L1342.931925 2218.0646 Z M1096.916025 1814.86865 Q1193.111325 1814.86865 1260.765375 1746.7985750000003 Q1328.419425 1678.7285000000002 1328.419425 1583.3039749999998 Q1328.419425 1487.108675 1260.5751 1419.4546249999999 Q1192.730775 1351.8005750000002 1096.3097249999998 1351.8005750000002 Q1000.662675 1351.8005750000002 933.0053999999999 1419.6449000000002 Q865.3513500000001 1487.4892250000003 865.3513500000001 1583.9102749999997 Q865.3513500000001 1679.5573250000002 933.421425 1747.2146000000002 Q1001.4915000000001 1814.86865 1096.916025 1814.86865 Z M1999.9160250000002 1814.86865 Q2096.111325 1814.86865 2163.765375 1746.7985750000003 Q2231.419425 1678.7285000000002 2231.419425 1583.3039749999998 Q2231.419425 1487.108675 2163.5751 1419.4546249999999 Q2095.7307750000004 1351.8005750000002 1999.309725 1351.8005750000002 Q1903.662675 1351.8005750000002 1836.0054 1419.6449000000002 Q1768.3513500000001 1487.4892250000003 1768.3513500000001 1583.9102749999997 Q1768.3513500000001 1679.5573250000002 1836.421425 1747.2146000000002 Q1904.4914999999999 1814.86865 1999.9160250000002 1814.86865 Z M982.1544 2837.6129 V2363.5379 Q862.8294 2324.209025 767.6919 2252.48825 Q672.5544000000001 2180.7642499999997 605.2131750000001 2083.559525 Q537.875175 1986.3547999999996 502.400175 1867.6683500000004 Q466.92517499999997 1748.9819000000002 466.92517499999997 1616.4666499999998 Q466.92517499999997 1190.399 766.0020000000001 926.7616999999999 Q1065.08205 663.1244 1548.029025 663.1244 Q2030.979225 663.1244 2330.414025 926.790725 Q2629.8456 1190.460275 2629.8456 1616.5763000000002 Q2629.8456 1749.1076750000002 2593.986825 1867.7296250000004 Q2558.124825 1986.3547999999996 2490.786825 2083.559525 Q2423.4456 2180.7642499999997 2328.3081 2252.48825 Q2233.1706 2324.209025 2113.8456 2363.5379 V2837.6129 H1943.4817500000001 V2644.1129 H1744.328325 V2837.6129 H1351.671675 V2644.1129 H1152.51825 V2837.6129 H982.1544 Z"/></g><g id="Regular-L" transform="matrix(1 0 0 1 1378.56 1556)"><path d="M774.0 3034.97 V2486.72 Q657.9 2435.12 562.7625 2348.045 Q467.625 2260.97 399.90000000000003 2146.4825 Q332.175 2031.995 295.08750000000003 1896.545 Q258.0 1761.0950000000003 258.0 1615.9700000000003 Q258.0 1106.42 619.2 780.695 Q980.4 454.97 1548.0 454.97 Q2115.6 454.97 2476.8 780.695 Q2838.0 1106.42 2838.0 1615.9700000000003 Q2838.0 1761.0950000000003 2800.9125 1896.545 Q2763.8250000000003 2031.995 2696.1 2146.4825 Q2628.375 2260.97 2533.2375 2348.045 Q2438.1 2435.12 2322.0 2486.72 V3034.97 H774.0 Z M967.5 2841.47 H1161.0 V3034.97 H1354.5 V2841.47 H1741.5 V3034.97 H1935.0 V2841.47 H2128.5 V2367.395 Q2247.8250000000003 2331.92 2342.9625 2260.97 Q2438.1 2190.02 2505.8250000000003 2091.6575 Q2573.55 1993.295 2609.025 1872.296225 Q2644.5 1751.294225 2644.5 1616.4666499999998 Q2644.5 1184.326325 2341.35 916.39655 Q2038.2 648.47 1548.1386750000001 648.47 Q1058.07735 648.47 754.788675 916.4288 Q451.5 1184.3876 451.5 1616.5763000000002 Q451.5 1751.42 486.975 1872.3575 Q522.45 1993.295 590.1750000000001 2091.6575 Q657.9 2190.02 753.0375 2260.97 Q848.1750000000001 2331.92 967.5 2367.395 V2841.47 Z M1354.5 2196.47 H1741.5 L1548.0 1809.4700000000003 L1354.5 2196.47 Z M1096.787025 1809.4700000000003 Q1190.025 1809.4700000000003 1256.1375 1743.070475 Q1322.25 1676.674175 1322.25 1583.4329749999997 Q1322.25 1490.1950000000002 1255.850475 1424.0825 Q1189.454175 1357.9700000000003 1096.2129750000001 1357.9700000000003 Q1002.975 1357.9700000000003 936.8625000000001 1424.369525 Q870.75 1490.765825 870.75 1584.0070250000003 Q870.75 1677.245 937.149525 1743.3575 Q1003.5458250000001 1809.4700000000003 1096.787025 1809.4700000000003 Z M1999.7870250000003 1809.4700000000003 Q2093.025 1809.4700000000003 2159.1375000000003 1743.070475 Q2225.25 1676.674175 2225.25 1583.4329749999997 Q2225.25 1490.1950000000002 2158.8504749999997 1424.0825 Q2092.454175 1357.9700000000003 1999.212975 1357.9700000000003 Q1905.9750000000001 1357.9700000000003 1839.8625 1424.369525 Q1773.75 1490.765825 1773.75 1584.0070250000003 Q1773.75 1677.245 1840.1495250000003 1743.3575 Q1906.5458250000001 1809.4700000000003 1999.7870250000003 1809.4700000000003 Z M967.5 2841.47 V2367.395 Q848.1750000000001 2331.92 753.0375 2260.97 Q657.9 2190.02 590.1750000000001 2091.6575 Q522.45 1993.295 486.975 1872.296225 Q451.5 1751.294225 451.5 1616.4666499999998 Q451.5 1184.326325 754.65 916.39655 Q1057.8 648.47 1547.861325 648.47 Q2037.92265 648.47 2341.211325 916.4288 Q2644.5 1184.3876 2644.5 1616.5763000000002 Q2644.5 1751.42 2609.025 1872.3575 Q2573.55 1993.295 2505.8250000000003 2091.6575 Q2438.1 2190.02 2342.9625 2260.97 Q2247.8250000000003 2331.92 2128.5 2367.395 V2841.47 H1935.0 V2647.97 H1741.5 V2841.47 H1354.5 V2647.97 H1161.0 V2841.47 H967.5 Z"/></g><g id="Light-L" transform="matrix(1 0 0 1 1082.77 1556)"><path d="M838.5032249999999 2970.466775 V2444.54345 Q722.403225 2395.423475 627.88815 2312.070125 Q533.36985 2228.716775 465.02565 2120.43095 Q396.67822500000005 2012.14835 359.590725 1883.519225 Q322.50322500000004 1754.893325 322.50322500000004 1615.9700000000003 Q322.50322500000004 1133.70995 665.6142 826.5932000000001 Q1008.725175 519.4732250000001 1547.8968000000002 519.4732250000001 Q2087.068425 519.4732250000001 2430.2826 826.5932000000001 Q2773.496775 1133.70995 2773.496775 1615.9700000000003 Q2773.496775 1754.893325 2736.409275 1883.519225 Q2699.3217750000003 2012.14835 2630.9743500000004 2120.43095 Q2562.63015 2228.716775 2468.1118500000002 2312.070125 Q2373.596775 2395.423475 2257.496775 2444.7691999999997 V2970.466775 H838.5032249999999 Z M984.866625 2824.103375 H1188.28995 V2970.466775 H1369.3866 V2824.103375 H1726.6134000000002 V2970.466775 H1907.7100500000001 V2824.103375 H2111.133375 V2353.750025 Q2229.21675 2317.0334 2324.3542500000003 2246.0834 Q2419.49175 2175.1334 2487.4038 2078.573675 Q2555.31585 1982.01395 2591.226225 1863.924125 Q2627.133375 1745.837525 2627.133375 1615.97645 Q2627.133375 1191.808325 2328.94665 928.822475 Q2030.7567000000001 665.836625 1548.3579750000001 665.836625 Q1065.9592499999999 665.836625 767.41455 928.9740500000001 Q468.866625 1192.1082500000002 468.866625 1616.521475 Q468.866625 1746.456725 504.77377500000006 1864.23695 Q540.68415 1982.01395 608.5962 2078.573675 Q676.5082500000001 2175.1334 771.64575 2246.0834 Q866.78325 2317.0334 984.866625 2353.750025 V2824.103375 Z M1366.90335 2167.938425 H1729.09665 L1548.0 1805.7483499999998 L1366.90335 2167.938425 Z M1097.103075 1802.0267 Q1183.823325 1802.0267 1244.9725500000002 1740.2711749999999 Q1306.125 1678.5188750000002 1306.125 1591.798625 Q1306.125 1505.0816 1244.369475 1443.92915 Q1182.61395 1382.7799249999998 1095.896925 1382.7799249999998 Q1009.176675 1382.7799249999998 948.02745 1444.5354499999999 Q886.875 1506.28775 886.875 1593.0079999999998 Q886.875 1679.7250250000002 948.630525 1740.8774750000002 Q1010.3860500000001 1802.0267 1097.103075 1802.0267 Z M2000.103075 1802.0267 Q2086.823325 1802.0267 2147.97255 1740.2711749999999 Q2209.125 1678.5188750000002 2209.125 1591.798625 Q2209.125 1505.0816 2147.369475 1443.92915 Q2085.61395 1382.7799249999998 1998.896925 1382.7799249999998 Q1912.1766750000002 1382.7799249999998 1851.02745 1444.5354499999999 Q1789.875 1506.28775 1789.875 1593.0079999999998 Q1789.875 1679.7250250000002 1851.630525 1740.8774750000002 Q1913.38605 1802.0267 2000.103075 1802.0267 Z M984.866625 2824.103375 V2353.750025 Q866.78325 2317.0334 771.64575 2246.0834 Q676.5082500000001 2175.1334 608.5962 2078.573675 Q540.68415 1982.01395 504.77377500000006 1863.924125 Q468.866625 1745.837525 468.866625 1615.97645 Q468.866625 1191.808325 767.05335 928.822475 Q1065.2433 665.836625 1547.642025 665.836625 Q2030.0407500000001 665.836625 2328.58545 928.9740500000001 Q2627.133375 1192.1082500000002 2627.133375 1616.521475 Q2627.133375 1746.456725 2591.226225 1864.23695 Q2555.31585 1982.01395 2487.4038 2078.573675 Q2419.49175 2175.1334 2324.3542500000003 2246.0834 Q2229.21675 2317.0334 2111.133375 2353.750025 V2824.103375 H1907.7100500000001 V2623.1600750000002 H1726.6134000000002 V2824.103375 H1369.3866 V2623.1600750000002 H1188.28995 V2824.103375 H984.866625 Z"/></g><g id="Thin-L" transform="matrix(1 0 0 1 787.282 1556)"><path d="M903.0 2905.97 V2402.37335 Q786.9 2355.736625 693.0009 2276.1017 Q599.1050250000001 2196.47 530.1383999999999 2094.38585 Q461.175 1992.3017 424.08750000000003 1870.4966749999999 Q387.0 1748.6916500000002 387.0 1615.9700000000003 Q387.0 1160.9966749999999 712.0219500000001 872.4817250000001 Q1037.0439000000001 583.97 1547.7936 583.97 Q2058.5433 583.97 2383.77165 872.4817250000001 Q2709.0 1160.9966749999999 2709.0 1615.9700000000003 Q2709.0 1748.6916500000002 2671.9125 1870.4966749999999 Q2634.8250000000003 1992.3017 2565.8616 2094.38585 Q2496.894975 2196.47 2402.9991 2276.1017 Q2309.1 2355.736625 2193.0 2402.82485 V2905.97 H903.0 Z M1002.2300250000001 2806.739975 H1215.576675 V2905.97 H1384.269975 V2806.739975 H1711.730025 V2905.97 H1880.423325 V2806.739975 H2093.769975 V2340.108275 Q2210.61495 2302.150025 2305.75245 2231.200025 Q2400.88995 2160.250025 2468.98905 2065.493075 Q2537.08815 1970.736125 2573.42745 1855.55525 Q2609.769975 1740.3776000000003 2609.769975 1615.48625 Q2609.769975 1199.2871 2316.5433 941.2451750000001 Q2023.316625 683.2000250000001 1548.5772749999999 683.2000250000001 Q1073.84115 683.2000250000001 780.0372000000001 941.5160750000001 Q486.230025 1199.832125 486.230025 1616.4666499999998 Q486.230025 1741.4966749999999 522.5725500000001 1856.1164000000003 Q558.9118500000001 1970.736125 627.01095 2065.493075 Q695.11005 2160.250025 790.24755 2231.200025 Q885.3850500000001 2302.150025 1002.2300250000001 2340.108275 V2806.739975 Z M1379.3067 2139.4132999999997 H1716.6933000000001 L1548.0 1802.0267 L1379.3067 2139.4132999999997 Z M1097.42235 1794.586625 Q1177.62165 1794.586625 1233.810825 1737.4751 Q1290.0 1680.3635749999999 1290.0 1600.164275 Q1290.0 1519.9649749999999 1232.888475 1463.7758 Q1175.77695 1407.586625 1095.57765 1407.586625 Q1015.3783500000001 1407.586625 959.189175 1464.6981500000002 Q903.0 1521.809675 903.0 1602.0089750000002 Q903.0 1682.20505 960.111525 1738.39745 Q1017.2230500000001 1794.586625 1097.42235 1794.586625 Z M2000.4223499999998 1794.586625 Q2080.62165 1794.586625 2136.810825 1737.4751 Q2193.0 1680.3635749999999 2193.0 1600.164275 Q2193.0 1519.9649749999999 2135.888475 1463.7758 Q2078.77695 1407.586625 1998.5776500000002 1407.586625 Q1918.37835 1407.586625 1862.189175 1464.6981500000002 Q1806.0 1521.809675 1806.0 1602.0089750000002 Q1806.0 1682.20505 1863.1115249999998 1738.39745 Q1920.22305 1794.586625 2000.4223499999998 1794.586625 Z M1002.2300250000001 2806.739975 V2340.108275 Q885.3850500000001 2302.150025 790.24755 2231.200025 Q695.11005 2160.250025 627.01095 2065.493075 Q558.9118500000001 1970.736125 522.5725500000001 1855.55525 Q486.230025 1740.3776000000003 486.230025 1615.48625 Q486.230025 1199.2871 779.4567000000001 941.2451750000001 Q1072.683375 683.2000250000001 1547.4227250000001 683.2000250000001 Q2022.1588499999998 683.2000250000001 2315.9628000000002 941.5160750000001 Q2609.769975 1199.832125 2609.769975 1616.4666499999998 Q2609.769975 1741.4966749999999 2573.42745 1856.1164000000003 Q2537.08815 1970.736125 2468.98905 2065.493075 Q2400.88995 2160.250025 2305.75245 2231.200025 Q2210.61495 2302.150025 2093.769975 2340.108275 V2806.739975 H1880.423325 V2598.353375 H1711.730025 V2806.739975 H1384.269975 V2598.353375 H1215.576675 V2806.739975 H1002.2300250000001 Z"/></g><g id="Ultralight-L" transform="matrix(1 0 0 1 491.205 1556)"><path d="M941.7 2867.27 V2377.07 Q825.6 2331.92 732.075 2254.52 Q638.5500000000001 2177.12 569.2125 2078.7575 Q499.875 1980.395 462.7875 1862.6825 Q425.7 1744.9700000000003 425.7 1615.9700000000003 Q425.7 1177.37 739.869825 900.02 Q1054.036425 622.6700000000001 1547.732325 622.6700000000001 Q2041.425 622.6700000000001 2355.8625 900.02 Q2670.3 1177.37 2670.3 1615.9700000000003 Q2670.3 1744.9700000000003 2633.2125 1862.6825 Q2596.125 1980.395 2526.7875 2078.7575 Q2457.4500000000003 2177.12 2363.925 2254.52 Q2270.4 2331.92 2154.3 2377.65695 V2867.27 H941.7 Z M1012.65 2796.32 H1231.95 V2867.27 H1393.2 V2796.32 H1702.8 V2867.27 H1864.05 V2796.32 H2083.35 V2331.92 Q2199.4500000000003 2293.22 2294.5875 2222.27 Q2389.725 2151.32 2457.936975 2057.6434249999998 Q2526.1489500000002 1963.9668499999998 2562.749475 1850.5339249999997 Q2599.35 1737.1009999999997 2599.35 1615.18955 Q2599.35 1203.7763 2309.1 948.69815 Q2018.8500000000001 693.62 1548.7095000000002 693.62 Q1078.572225 693.62 787.6095 949.043225 Q496.65000000000003 1204.463225 496.65000000000003 1616.4344 Q496.65000000000003 1738.52 533.2505249999999 1851.2434250000001 Q569.85105 1963.9668499999998 638.063025 2057.6434249999998 Q706.275 2151.32 801.4125 2222.27 Q896.5500000000001 2293.22 1012.65 2331.92 V2796.32 Z M1386.75 2122.295 H1709.25 L1548.0 1799.795 L1386.75 2122.295 Z M1097.6126250000002 1790.12 Q1173.9 1790.12 1227.1125 1735.794875 Q1280.325 1681.4697499999997 1280.325 1605.1823749999999 Q1280.325 1528.895 1225.999875 1475.6825 Q1171.6747500000001 1422.4700000000003 1095.387375 1422.4700000000003 Q1019.1 1422.4700000000003 965.8875 1476.795125 Q912.6750000000001 1531.12025 912.6750000000001 1607.4076250000003 Q912.6750000000001 1683.6950000000002 967.0001250000001 1736.9075000000003 Q1021.32525 1790.12 1097.6126250000002 1790.12 Z M2000.6126250000002 1790.12 Q2076.9 1790.12 2130.1125 1735.794875 Q2183.3250000000003 1681.4697499999997 2183.3250000000003 1605.1823749999999 Q2183.3250000000003 1528.895 2128.999875 1475.6825 Q2074.6747499999997 1422.4700000000003 1998.387375 1422.4700000000003 Q1922.1000000000001 1422.4700000000003 1868.8875 1476.795125 Q1815.675 1531.12025 1815.675 1607.4076250000003 Q1815.675 1683.6950000000002 1870.0001250000003 1736.9075000000003 Q1924.3252500000003 1790.12 2000.6126250000002 1790.12 Z M1012.65 2796.32 V2331.92 Q896.5500000000001 2293.22 801.4125 2222.27 Q706.275 2151.32 638.063025 2057.6434249999998 Q569.85105 1963.9668499999998 533.2505249999999 1850.5339249999997 Q496.65000000000003 1737.1009999999997 496.65000000000003 1615.18955 Q496.65000000000003 1203.7763 786.9 948.69815 Q1077.15 693.62 1547.2905 693.62 Q2017.4277749999999 693.62 2308.3905 949.043225 Q2599.35 1204.463225 2599.35 1616.4344 Q2599.35 1738.52 2562.749475 1851.2434250000001 Q2526.1489500000002 1963.9668499999998 2457.936975 2057.6434249999998 Q2389.725 2151.32 2294.5875 2222.27 Q2199.4500000000003 2293.22 2083.35 2331.92 V2796.32 H1864.05 V2583.47 H1702.8 V2796.32 H1393.2 V2583.47 H1231.95 V2796.32 H1012.65 Z"/></g><g id="Bold-M" transform="matrix(1 0 0 1 2281.8 1126)"><path d="M1095.0 4884.77 V4004.77 Q925.0 3909.77 780.0 3759.77 Q635.0 3609.77 527.5 3424.77 Q420.0 3239.77 360.0 3024.77 Q300.0 2809.77 300.0 2584.77 Q300.0 1744.77 887.5 1214.77 Q1475.0 684.77 2400.0 684.77 Q3325.0 684.77 3912.5 1214.77 Q4500.0 1744.77 4500.0 2584.77 Q4500.0 2809.77 4440.0 3024.77 Q4380.0 3239.77 4272.5 3424.77 Q4165.0 3609.77 4020.0 3759.77 Q3875.0 3909.77 3705.0 4004.77 V4884.77 H1095.0 Z M1725.0 4354.77 V4884.77 H2175.0 V4354.77 H2625.0 V4884.77 H3075.0 V4354.77 V3639.77 Q3260.0 3564.77 3407.5 3454.77 Q3555.0 3344.77 3657.5 3207.27 Q3760.0 3069.77 3815.0 2912.27 Q3870.0 2754.77 3870.0 2584.77 Q3870.0 2014.77 3462.5 1664.77 Q3055.0 1314.77 2400.0 1314.77 Q1745.0 1314.77 1337.5 1664.77 Q930.0 2014.77 930.0 2584.77 Q930.0 2754.77 985.0 2912.27 Q1040.0 3069.77 1142.5 3207.27 Q1245.0 3344.77 1392.5 3454.77 Q1540.0 3564.77 1725.0 3639.77 V4354.77 Z M2000.0 3724.77 H2800.0 L2400.0 2924.77 L2000.0 3724.77 Z M1700.0 3034.77 Q1890.0 3034.77 2020.0 2902.27 Q2150.0 2769.77 2150.0 2584.77 Q2150.0 2394.77 2020.0 2264.77 Q1890.0 2134.77 1700.0 2134.77 Q1515.0 2134.77 1382.5 2264.77 Q1250.0 2394.77 1250.0 2584.77 Q1250.0 2769.77 1382.5 2902.27 Q1515.0 3034.77 1700.0 3034.77 Z M3100.0 3034.77 Q3290.0 3034.77 3420.0 2902.27 Q3550.0 2769.77 3550.0 2584.77 Q3550.0 2394.77 3420.0 2264.77 Q3290.0 2134.77 3100.0 2134.77 Q2915.0 2134.77 2782.5 2264.77 Q2650.0 2394.77 2650.0 2584.77 Q2650.0 2769.77 2782.5 2902.27 Q2915.0 3034.77 3100.0 3034.77 Z M1725.0 4354.77 V3639.77 Q1540.0 3564.77 1392.5 3454.77 Q1245.0 3344.77 1142.5 3207.27 Q1040.0 3069.77 985.0 2912.27 Q930.0 2754.77 930.0 2584.77 Q930.0 2014.77 1337.5 1664.77 Q1745.0 1314.77 2400.0 1314.77 Q3055.0 1314.77 3462.5 1664.77 Q3870.0 2014.77 3870.0 2584.77 Q3870.0 2754.77 3815.0 2912.27 Q3760.0 3069.77 3657.5 3207.27 Q3555.0 3344.77 3407.5 3454.77 Q3260.0 3564.77 3075.0 3639.77 V4354.77 H2625.0 H2175.0 H1725.0 Z"/></g><g id="Semibold-M" transform="matrix(1 0 0 1 1985.97 1126)"><path d="M1140.65 4841.295 V3974.335 Q959.78 3883.685 813.695 3736.9449999999997 Q667.6049999999999 3590.205 562.28 3407.38 Q456.95500000000004 3224.555 400.21500000000003 3013.9 Q343.47499999999997 2803.25 343.47499999999997 2584.77 Q343.47499999999997 1766.51 919.02 1247.375 Q1494.565 728.2449999999999 2400.0 728.2449999999999 Q3305.435 728.2449999999999 3880.98 1247.375 Q4456.525 1766.51 4456.525 2584.77 Q4456.525 2803.25 4399.785 3013.9 Q4343.045 3224.555 4237.72 3407.38 Q4132.395 3590.205 3986.305 3736.9449999999997 Q3840.22 3883.685 3659.35 3974.335 V4841.295 H1140.65 Z M1670.6549999999997 4367.8150000000005 H1757.605 V4841.295 H2185.87 V4367.8150000000005 H2614.13 V4841.295 H3042.3950000000004 V4367.8150000000005 H3129.3450000000003 V3654.985 Q3316.52 3593.03 3464.02 3485.205 Q3611.52 3377.3749999999995 3714.02 3236.6150000000002 Q3816.52 3095.855 3871.52 2930.7450000000003 Q3926.52 2765.64 3926.52 2584.77 Q3926.52 1990.8600000000001 3503.8 1624.5549999999998 Q3081.085 1258.25 2400.0 1258.25 Q1718.915 1258.25 1296.2 1624.5549999999998 Q873.48 1990.8600000000001 873.48 2584.77 Q873.48 2765.64 928.48 2930.7450000000003 Q983.48 3095.855 1085.98 3236.6150000000002 Q1188.48 3377.3749999999995 1337.07 3485.205 Q1485.6549999999997 3593.03 1670.6549999999997 3654.985 V4367.8150000000005 Z M2043.475 3642.1650000000004 H2756.5249999999996 L2400.0 2929.12 L2043.475 3642.1650000000004 Z M1700.0 3013.03 Q1879.13 3013.03 2003.695 2887.055 Q2128.2599999999998 2761.075 2128.2599999999998 2584.77 Q2128.2599999999998 2405.64 2003.695 2281.0750000000003 Q1879.13 2156.51 1700.0 2156.51 Q1523.695 2156.51 1397.7150000000001 2281.0750000000003 Q1271.74 2405.64 1271.74 2584.77 Q1271.74 2761.075 1397.7150000000001 2887.055 Q1523.695 3013.03 1700.0 3013.03 Z M3100.0 3013.03 Q3279.13 3013.03 3403.695 2887.055 Q3528.26 2761.075 3528.26 2584.77 Q3528.26 2405.64 3403.695 2281.0750000000003 Q3279.13 2156.51 3100.0 2156.51 Q2923.695 2156.51 2797.715 2281.0750000000003 Q2671.74 2405.64 2671.74 2584.77 Q2671.74 2761.075 2797.715 2887.055 Q2923.695 3013.03 3100.0 3013.03 Z M1670.6549999999997 4367.8150000000005 V3654.985 Q1485.6549999999997 3593.03 1337.07 3485.205 Q1188.48 3377.3749999999995 1085.98 3236.6150000000002 Q983.48 3095.855 928.48 2930.7450000000003 Q873.48 2765.64 873.48 2584.77 Q873.48 1990.8600000000001 1296.2 1624.5549999999998 Q1718.915 1258.25 2400.0 1258.25 Q3081.085 1258.25 3503.8 1624.5549999999998 Q3926.52 1990.8600000000001 3926.52 2584.77 Q3926.52 2765.64 3871.52 2930.7450000000003 Q3816.52 3095.855 3714.02 3236.6150000000002 Q3611.52 3377.3749999999995 3464.02 3485.205 Q3316.52 3593.03 3129.3450000000003 3654.985 V4367.8150000000005 H3042.3950000000004 H2614.13 H2185.87 H1757.605 H1670.6549999999997 Z"/></g><g id="Medium-M" transform="matrix(1 0 0 1 1689.91 1126)"><path d="M1174.89 4808.685 V3951.5099999999998 Q985.87 3864.12 838.965 3719.825 Q692.065 3575.53 588.37 3394.335 Q484.675 3213.14 430.38 3005.75 Q376.085 2798.355 376.085 2584.77 Q376.085 1782.8149999999998 942.665 1271.835 Q1509.24 760.855 2400.0 760.855 Q3290.76 760.855 3857.335 1271.835 Q4423.915 1782.8149999999998 4423.915 2584.77 Q4423.915 2798.355 4369.62 3005.75 Q4315.325000000001 3213.14 4211.63 3394.335 Q4107.9349999999995 3575.53 3961.035 3719.825 Q3814.13 3864.12 3625.11 3951.5099999999998 V4808.685 H1174.89 Z M1629.89 4377.595000000001 H1782.065 V4808.685 H2194.02 V4377.595000000001 H2605.98 V4808.685 H3017.935 V4377.595000000001 H3170.11 V3666.4 Q3358.9100000000003 3614.225 3506.4100000000003 3508.03 Q3653.9100000000003 3401.835 3756.4100000000003 3258.63 Q3858.9100000000003 3115.42 3913.9100000000003 2944.605 Q3968.9100000000003 2773.79 3968.9100000000003 2584.77 Q3968.9100000000003 1972.92 3534.78 1594.3899999999999 Q3100.65 1215.8600000000001 2400.0 1215.8600000000001 Q1699.35 1215.8600000000001 1265.22 1594.3899999999999 Q831.0899999999999 1972.92 831.0899999999999 2584.77 Q831.0899999999999 2773.79 886.0899999999999 2944.605 Q941.0899999999999 3115.42 1043.59 3258.63 Q1146.09 3401.835 1295.49 3508.03 Q1444.89 3614.225 1629.89 3666.4 V4377.595000000001 Z M2076.085 3580.205 H2723.915 L2400.0 2932.38 L2076.085 3580.205 Z M1700.0 2996.725 Q1870.98 2996.725 1991.4699999999998 2875.64 Q2111.955 2754.555 2111.955 2584.77 Q2111.955 2413.79 1991.4699999999998 2293.3 Q1870.98 2172.815 1700.0 2172.815 Q1530.2150000000001 2172.815 1409.13 2293.3 Q1288.0449999999998 2413.79 1288.0449999999998 2584.77 Q1288.0449999999998 2754.555 1409.13 2875.64 Q1530.2150000000001 2996.725 1700.0 2996.725 Z M3100.0 2996.725 Q3270.98 2996.725 3391.47 2875.64 Q3511.955 2754.555 3511.955 2584.77 Q3511.955 2413.79 3391.47 2293.3 Q3270.98 2172.815 3100.0 2172.815 Q2930.215 2172.815 2809.13 2293.3 Q2688.045 2413.79 2688.045 2584.77 Q2688.045 2754.555 2809.13 2875.64 Q2930.215 2996.725 3100.0 2996.725 Z M1629.89 4377.595000000001 V3666.4 Q1444.89 3614.225 1295.49 3508.03 Q1146.09 3401.835 1043.59 3258.63 Q941.0899999999999 3115.42 886.0899999999999 2944.605 Q831.0899999999999 2773.79 831.0899999999999 2584.77 Q831.0899999999999 1972.92 1265.22 1594.3899999999999 Q1699.35 1215.8600000000001 2400.0 1215.8600000000001 Q3100.65 1215.8600000000001 3534.78 1594.3899999999999 Q3968.9100000000003 1972.92 3968.9100000000003 2584.77 Q3968.9100000000003 2773.79 3913.9100000000003 2944.605 Q3858.9100000000003 3115.42 3756.4100000000003 3258.63 Q3653.9100000000003 3401.835 3506.4100000000003 3508.03 Q3358.9100000000003 3614.225 3170.11 3666.4 V4377.595000000001 H3017.935 H2605.98 H2194.02 H1782.065 H1629.89 Z"/></g><g id="Regular-M" transform="matrix(1 0 0 1 1394.06 1126)"><path d="M1200.0 4784.77 V3934.77 Q1005.0 3849.77 857.5 3707.27 Q710.0 3564.77 607.5 3384.77 Q505.0 3204.77 452.5 2999.77 Q400.0 2794.77 400.0 2584.77 Q400.0 1794.77 960.0 1289.77 Q1520.0 784.77 2400.0 784.77 Q3280.0 784.77 3840.0 1289.77 Q4400.0 1794.77 4400.0 2584.77 Q4400.0 2794.77 4347.5 2999.77 Q4295.0 3204.77 4192.5 3384.77 Q4090.0 3564.77 3942.5 3707.27 Q3795.0 3849.77 3600.0 3934.77 V4784.77 H1200.0 Z M1600.0 4384.77 H1800.0 V4784.77 H2200.0 V4384.77 H2600.0 V4784.77 H3000.0 V4384.77 H3200.0 V3674.77 Q3390.0 3629.77 3537.5 3524.77 Q3685.0 3419.77 3787.5 3274.77 Q3890.0 3129.77 3945.0 2954.77 Q4000.0 2779.77 4000.0 2584.77 Q4000.0 1959.77 3557.5 1572.27 Q3115.0 1184.77 2400.0 1184.77 Q1685.0 1184.77 1242.5 1572.27 Q800.0 1959.77 800.0 2584.77 Q800.0 2779.77 855.0 2954.77 Q910.0 3129.77 1012.5 3274.77 Q1115.0 3419.77 1265.0 3524.77 Q1415.0 3629.77 1600.0 3674.77 V4384.77 Z M2100.0 3534.77 H2700.0 L2400.0 2934.77 L2100.0 3534.77 Z M1700.0 2984.77 Q1865.0 2984.77 1982.5 2867.27 Q2100.0 2749.77 2100.0 2584.77 Q2100.0 2419.77 1982.5 2302.27 Q1865.0 2184.77 1700.0 2184.77 Q1535.0 2184.77 1417.5 2302.27 Q1300.0 2419.77 1300.0 2584.77 Q1300.0 2749.77 1417.5 2867.27 Q1535.0 2984.77 1700.0 2984.77 Z M3100.0 2984.77 Q3265.0 2984.77 3382.5 2867.27 Q3500.0 2749.77 3500.0 2584.77 Q3500.0 2419.77 3382.5 2302.27 Q3265.0 2184.77 3100.0 2184.77 Q2935.0 2184.77 2817.5 2302.27 Q2700.0 2419.77 2700.0 2584.77 Q2700.0 2749.77 2817.5 2867.27 Q2935.0 2984.77 3100.0 2984.77 Z M1600.0 4384.77 V3674.77 Q1415.0 3629.77 1265.0 3524.77 Q1115.0 3419.77 1012.5 3274.77 Q910.0 3129.77 855.0 2954.77 Q800.0 2779.77 800.0 2584.77 Q800.0 1959.77 1242.5 1572.27 Q1685.0 1184.77 2400.0 1184.77 Q3115.0 1184.77 3557.5 1572.27 Q4000.0 1959.77 4000.0 2584.77 Q4000.0 2779.77 3945.0 2954.77 Q3890.0 3129.77 3787.5 3274.77 Q3685.0 3419.77 3537.5 3524.77 Q3390.0 3629.77 3200.0 3674.77 V4384.77 H3000.0 H2600.0 H2200.0 H1800.0 H1600.0 Z"/></g><g id="Light-M" transform="matrix(1 0 0 1 1098.18 1126)"><path d="M1300.0049999999999 4684.765 V3869.38 Q1110.775 3788.225 963.275 3654.38 Q815.775 3520.5350000000003 712.3149999999999 3350.15 Q608.855 3179.77 554.43 2984.3849999999998 Q500.005 2789.0 500.005 2584.77 Q500.005 1837.08 1031.96 1360.93 Q1563.915 884.775 2399.84 884.775 Q3235.7650000000003 884.775 3767.88 1360.93 Q4299.995 1837.08 4299.995 2584.77 Q4299.995 2789.0 4245.57 2984.3849999999998 Q4191.145 3179.77 4087.6850000000004 3350.15 Q3984.2250000000004 3520.5350000000003 3836.7250000000004 3654.38 Q3689.2250000000004 3788.225 3499.995 3869.73 V4684.765 H1300.0049999999999 Z M1600.0 4384.77 H1842.31 V4684.765 H2196.1549999999997 V4384.77 H2603.8450000000003 V4684.765 H2957.69 V4384.77 H3200.0 V3674.77 Q3386.1549999999997 3624.0 3533.6549999999997 3518.04 Q3681.1549999999997 3412.0750000000003 3784.9049999999997 3267.95 Q3888.6549999999997 3123.8199999999997 3944.33 2949.87 Q4000.0 2775.9249999999997 4000.0 2584.77 Q4000.0 1959.77 3557.5 1572.27 Q3115.0 1184.77 2400.0 1184.77 Q1685.0 1184.77 1242.5 1572.27 Q800.0 1959.77 800.0 2584.77 Q800.0 2775.9249999999997 855.67 2949.87 Q911.345 3123.8199999999997 1015.095 3267.95 Q1118.845 3412.0750000000003 1267.885 3518.04 Q1416.925 3624.0 1600.0 3674.77 V4384.77 Z M2119.23 3477.0750000000003 H2680.77 L2400.0 2915.54 L2119.23 3477.0750000000003 Z M1700.34 2946.305 Q1849.615 2946.305 1955.575 2840.005 Q2061.535 2733.7050000000004 2061.535 2584.43 Q2061.535 2435.155 1955.2350000000001 2329.195 Q1848.935 2223.235 1699.66 2223.235 Q1550.385 2223.235 1444.425 2329.535 Q1338.465 2435.835 1338.465 2585.11 Q1338.465 2734.3849999999998 1444.7649999999999 2840.345 Q1551.065 2946.305 1700.34 2946.305 Z M3100.34 2946.305 Q3249.615 2946.305 3355.575 2840.005 Q3461.535 2733.7050000000004 3461.535 2584.43 Q3461.535 2435.155 3355.235 2329.195 Q3248.9350000000004 2223.235 3099.66 2223.235 Q2950.385 2223.235 2844.425 2329.535 Q2738.465 2435.835 2738.465 2585.11 Q2738.465 2734.3849999999998 2844.765 2840.345 Q2951.0649999999996 2946.305 3100.34 2946.305 Z M1600.0 4384.77 V3674.77 Q1416.925 3624.0 1267.885 3518.04 Q1118.845 3412.0750000000003 1015.095 3267.95 Q911.345 3123.8199999999997 855.67 2949.87 Q800.0 2775.9249999999997 800.0 2584.77 Q800.0 1959.77 1242.5 1572.27 Q1685.0 1184.77 2400.0 1184.77 Q3115.0 1184.77 3557.5 1572.27 Q4000.0 1959.77 4000.0 2584.77 Q4000.0 2775.9249999999997 3944.33 2949.87 Q3888.6549999999997 3123.8199999999997 3784.9049999999997 3267.95 Q3681.1549999999997 3412.0750000000003 3533.6549999999997 3518.04 Q3386.1549999999997 3624.0 3200.0 3674.77 V4384.77 H2957.69 V4292.455000000001 H2603.8450000000003 V4384.77 H2196.1549999999997 V4292.455000000001 H1842.31 V4384.77 H1600.0 Z"/></g><g id="Thin-M" transform="matrix(1 0 0 1 802.565 1126)"><path d="M1400.0 4584.77 V3804.0 Q1216.5349999999999 3726.695 1069.0349999999999 3601.5 Q921.535 3476.31 817.115 3315.54 Q712.69 3154.77 656.345 2969.0 Q600.0 2783.23 600.0 2584.77 Q600.0 1879.385 1103.91 1432.075 Q1607.8200000000002 984.77 2399.68 984.77 Q3191.54 984.77 3695.77 1432.075 Q4200.0 1879.385 4200.0 2584.77 Q4200.0 2783.23 4143.655 2969.0 Q4087.31 3154.77 3982.885 3315.54 Q3878.465 3476.31 3730.965 3601.5 Q3583.465 3726.695 3400.0 3804.7 V4584.77 H1400.0 Z M1600.0 4384.77 H1884.615 V4584.77 H2192.31 V4384.77 H2607.69 V4584.77 H2915.385 V4384.77 H3200.0 V3674.77 Q3382.31 3618.23 3529.81 3511.31 Q3677.31 3404.3849999999998 3782.31 3261.13 Q3887.3149999999996 3117.87 3943.6549999999997 2944.9750000000004 Q4000.0 2772.08 4000.0 2584.77 Q4000.0 1959.77 3557.5 1572.27 Q3115.0 1184.77 2400.0 1184.77 Q1685.0 1184.77 1242.5 1572.27 Q800.0 1959.77 800.0 2584.77 Q800.0 2772.08 856.345 2944.9750000000004 Q912.6850000000001 3117.87 1017.69 3261.13 Q1122.69 3404.3849999999998 1270.77 3511.31 Q1418.845 3618.23 1600.0 3674.77 V4384.77 Z M2138.46 3419.3849999999998 H2661.54 L2400.0 2896.31 L2138.46 3419.3849999999998 Z M1700.68 2907.845 Q1834.23 2907.845 1928.655 2812.7450000000003 Q2023.075 2717.64 2023.075 2584.09 Q2023.075 2450.54 1927.9750000000001 2356.1150000000002 Q1832.8700000000001 2261.695 1699.32 2261.695 Q1565.77 2261.695 1471.345 2356.7949999999996 Q1376.925 2451.9 1376.925 2585.45 Q1376.925 2719.0 1472.0249999999999 2813.4249999999997 Q1567.1299999999999 2907.845 1700.68 2907.845 Z M3100.68 2907.845 Q3234.23 2907.845 3328.6549999999997 2812.7450000000003 Q3423.075 2717.64 3423.075 2584.09 Q3423.075 2450.54 3327.9750000000004 2356.1150000000002 Q3232.87 2261.695 3099.32 2261.695 Q2965.77 2261.695 2871.3450000000003 2356.7949999999996 Q2776.925 2451.9 2776.925 2585.45 Q2776.925 2719.0 2872.0249999999996 2813.4249999999997 Q2967.13 2907.845 3100.68 2907.845 Z M1600.0 4384.77 V3674.77 Q1418.845 3618.23 1270.77 3511.31 Q1122.69 3404.3849999999998 1017.69 3261.13 Q912.6850000000001 3117.87 856.345 2944.9750000000004 Q800.0 2772.08 800.0 2584.77 Q800.0 1959.77 1242.5 1572.27 Q1685.0 1184.77 2400.0 1184.77 Q3115.0 1184.77 3557.5 1572.27 Q4000.0 1959.77 4000.0 2584.77 Q4000.0 2772.08 3943.6549999999997 2944.9750000000004 Q3887.3149999999996 3117.87 3782.31 3261.13 Q3677.31 3404.3849999999998 3529.81 3511.31 Q3382.31 3618.23 3200.0 3674.77 V4384.77 H2915.385 V4200.155000000001 H2607.69 V4384.77 H2192.31 V4200.155000000001 H1884.615 V4384.77 H1600.0 Z"/></g><g id="Ultralight-M" transform="matrix(1 0 0 1 506.415 1126)"><path d="M1460.0 4524.77 V3764.77 Q1280.0 3689.77 1132.5 3569.77 Q985.0 3449.77 880.0 3294.77 Q775.0 3139.77 717.5 2959.77 Q660.0 2779.77 660.0 2584.77 Q660.0 1904.77 1147.085 1474.77 Q1634.1650000000002 1044.77 2399.585 1044.77 Q3165.0 1044.77 3652.5 1474.77 Q4140.0 1904.77 4140.0 2584.77 Q4140.0 2779.77 4082.5 2959.77 Q4025.0 3139.77 3920.0 3294.77 Q3815.0 3449.77 3667.5 3569.77 Q3520.0 3689.77 3340.0 3765.68 V4524.77 H1460.0 Z M1600.0 4384.77 H1910.0 V4524.77 H2190.0 V4384.77 H2610.0 V4524.77 H2890.0 V4384.77 H3200.0 V3674.77 Q3380.0 3614.77 3527.5 3507.27 Q3675.0 3399.77 3780.7549999999997 3257.035 Q3886.51 3114.2999999999997 3943.2549999999997 2942.035 Q4000.0 2769.77 4000.0 2584.77 Q4000.0 1959.77 3557.5 1572.27 Q3115.0 1184.77 2400.0 1184.77 Q1685.0 1184.77 1242.5 1572.27 Q800.0 1959.77 800.0 2584.77 Q800.0 2769.77 856.7449999999999 2942.035 Q913.49 3114.2999999999997 1019.2449999999999 3257.035 Q1125.0 3399.77 1272.5 3507.27 Q1420.0 3614.77 1600.0 3674.77 V4384.77 Z M2150.0 3384.77 H2650.0 L2400.0 2884.77 L2150.0 3384.77 Z M1700.8850000000002 2884.77 Q1825.0 2884.77 1912.5 2796.3849999999998 Q2000.0 2707.9999999999995 2000.0 2583.8849999999998 Q2000.0 2459.77 1911.6149999999998 2372.27 Q1823.23 2284.77 1699.1149999999998 2284.77 Q1575.0 2284.77 1487.5 2373.155 Q1400.0 2461.54 1400.0 2585.655 Q1400.0 2709.77 1488.3850000000002 2797.27 Q1576.77 2884.77 1700.8850000000002 2884.77 Z M3100.885 2884.77 Q3225.0 2884.77 3312.5 2796.3849999999998 Q3400.0 2707.9999999999995 3400.0 2583.8849999999998 Q3400.0 2459.77 3311.615 2372.27 Q3223.2299999999996 2284.77 3099.115 2284.77 Q2975.0 2284.77 2887.5 2373.155 Q2800.0 2461.54 2800.0 2585.655 Q2800.0 2709.77 2888.385 2797.27 Q2976.7700000000004 2884.77 3100.885 2884.77 Z M1600.0 4384.77 V3674.77 Q1420.0 3614.77 1272.5 3507.27 Q1125.0 3399.77 1019.2449999999999 3257.035 Q913.49 3114.2999999999997 856.7449999999999 2942.035 Q800.0 2769.77 800.0 2584.77 Q800.0 1959.77 1242.5 1572.27 Q1685.0 1184.77 2400.0 1184.77 Q3115.0 1184.77 3557.5 1572.27 Q4000.0 1959.77 4000.0 2584.77 Q4000.0 2769.77 3943.2549999999997 2942.035 Q3886.51 3114.2999999999997 3780.7549999999997 3257.035 Q3675.0 3399.77 3527.5 3507.27 Q3380.0 3614.77 3200.0 3674.77 V4384.77 H2890.0 V4144.77 H2610.0 V4384.77 H2190.0 V4144.77 H1910.0 V4384.77 H1600.0 Z"/></g><g id="Bold-S" transform="matrix(1 0 0 1 2294.23 696)"><path d="M1093.554 4556.75 V3756.7039999999997 Q1117.224 3747.236 1003.608 3678.593 Q889.992 3609.95 747.972 3460.8289999999997 Q605.952 3311.7079999999996 482.868 3056.0719999999997 Q359.784 2800.4359999999997 359.784 2416.982 Q359.784 1683.212 908.928 1207.4450000000002 Q1458.072 731.6780000000001 2272.32 731.6780000000001 Q3086.568 731.6780000000001 3635.712 1207.4450000000002 Q4184.856 1683.212 4184.856 2416.982 Q4184.856 2800.4359999999997 4061.772 3056.0719999999997 Q3938.688 3311.7079999999996 3796.668 3460.8289999999997 Q3654.648 3609.95 3541.032 3678.593 Q3427.416 3747.236 3451.086 3756.7039999999997 V4556.75 H1093.554 Z M1652.166 4092.8179999999998 H1633.23 V4556.75 H2021.418 V4092.8179999999998 H2523.222 V4556.75 H2911.41 V4092.8179999999998 H2892.474 V3430.058 Q2887.74 3401.654 3003.723 3361.415 Q3119.706 3321.176 3256.992 3217.028 Q3394.278 3112.8799999999997 3510.261 2923.52 Q3626.244 2734.16 3626.244 2416.982 Q3626.244 1929.38 3238.056 1609.835 Q2849.868 1290.29 2272.32 1290.29 Q1694.772 1290.29 1306.584 1609.835 Q918.396 1929.38 918.396 2416.982 Q918.396 2734.16 1032.012 2923.52 Q1145.628 3112.8799999999997 1285.281 3217.028 Q1424.934 3321.176 1538.55 3361.415 Q1652.166 3401.654 1652.166 3430.058 V4092.8179999999998 Z M1893.6 3505.8019999999997 H2651.04 L2272.32 2748.3619999999996 L1893.6 3505.8019999999997 Z M1590.624 2805.1699999999996 Q1756.314 2805.1699999999996 1867.563 2691.5539999999996 Q1978.812 2577.9379999999996 1978.812 2416.982 Q1978.812 2251.292 1867.563 2140.0429999999997 Q1756.314 2028.794 1590.624 2028.794 Q1429.668 2028.794 1316.052 2140.0429999999997 Q1202.436 2251.292 1202.436 2416.982 Q1202.436 2577.9379999999996 1316.052 2691.5539999999996 Q1429.668 2805.1699999999996 1590.624 2805.1699999999996 Z M2954.016 2805.1699999999996 Q3119.706 2805.1699999999996 3230.955 2691.5539999999996 Q3342.204 2577.9379999999996 3342.204 2416.982 Q3342.204 2251.292 3230.955 2140.0429999999997 Q3119.706 2028.794 2954.016 2028.794 Q2793.06 2028.794 2679.444 2140.0429999999997 Q2565.828 2251.292 2565.828 2416.982 Q2565.828 2577.9379999999996 2679.444 2691.5539999999996 Q2793.06 2805.1699999999996 2954.016 2805.1699999999996 Z M1652.166 4092.8179999999998 V3430.058 Q1652.166 3401.654 1538.55 3361.415 Q1424.934 3321.176 1285.281 3217.028 Q1145.628 3112.8799999999997 1032.012 2923.52 Q918.396 2734.16 918.396 2416.982 Q918.396 1929.38 1306.584 1609.835 Q1694.772 1290.29 2272.32 1290.29 Q2849.868 1290.29 3238.056 1609.835 Q3626.244 1929.38 3626.244 2416.982 Q3626.244 2734.16 3510.261 2923.52 Q3394.278 3112.8799999999997 3256.992 3217.028 Q3119.706 3321.176 3003.723 3361.415 Q2887.74 3401.654 2892.474 3430.058 V4092.8179999999998 H2911.41 H2523.222 H2021.418 H1633.23 H1652.166 Z"/></g><g id="Semibold-S" transform="matrix(1 0 0 1 1998.1 696)"><path d="M1136.77542 4515.58787 V3727.888142 Q1150.1537039999998 3722.538722 1035.510426 3656.9822899999995 Q920.862414 3591.4258579999996 780.901704 3444.364148 Q640.9409939999999 3297.3024379999997 520.943562 3045.780284 Q400.94613 2794.262864 400.94613 2416.982 Q400.94613 1703.7954320000001 938.771136 1238.3154140000001 Q1476.596142 772.84013 2272.32 772.84013 Q3068.043858 772.84013 3605.868864 1238.3154140000001 Q4143.69387 1703.7954320000001 4143.69387 2416.982 Q4143.69387 2794.262864 4023.696438 3045.780284 Q3903.6990060000003 3297.3024379999997 3763.738296 3444.364148 Q3623.777586 3591.4258579999996 3509.129574 3656.9822899999995 Q3394.486296 3722.538722 3407.86458 3727.888142 V4515.58787 H1136.77542 Z M1600.7121539999998 4105.169006 H1664.100414 V4515.58787 H2031.7097159999998 V4105.169006 H2512.930284 V4515.58787 H2880.5395860000003 V4105.169006 H2943.927846 V3444.463562 Q2941.253136 3428.4105680000002 3057.236136 3390.230858 Q3173.2191359999997 3352.0464139999995 3310.5051359999998 3244.811846 Q3447.791136 3137.5772779999998 3563.774136 2941.01213 Q3679.7571359999997 2744.4517159999996 3679.7571359999997 2416.982 Q3679.7571359999997 1906.7420120000002 3277.15884 1571.759438 Q2874.565278 1236.7768640000002 2272.32 1236.7768640000002 Q1670.074722 1236.7768640000002 1267.48116 1571.759438 Q864.882864 1906.7420120000002 864.882864 2416.982 Q864.882864 2744.4517159999996 978.498864 2941.01213 Q1092.114864 3137.5772779999998 1231.7678640000001 3244.811846 Q1371.4208640000002 3352.0464139999995 1486.068876 3390.230858 Q1600.7121539999998 3428.4105680000002 1600.7121539999998 3444.463562 V4105.169006 Z M1934.76213 3427.591586 H2609.87787 L2272.32 2752.48058 L1934.76213 3427.591586 Z M1590.624 2784.586568 Q1746.0222840000001 2784.586568 1852.1254259999998 2677.1484379999997 Q1958.228568 2569.7055739999996 1958.228568 2416.982 Q1958.228568 2261.5837159999996 1852.1254259999998 2155.480574 Q1746.0222840000001 2049.3774319999998 1590.624 2049.3774319999998 Q1437.900426 2049.3774319999998 1330.457562 2155.480574 Q1223.019432 2261.5837159999996 1223.019432 2416.982 Q1223.019432 2569.7055739999996 1330.457562 2677.1484379999997 Q1437.900426 2784.586568 1590.624 2784.586568 Z M2954.016 2784.586568 Q3109.414284 2784.586568 3215.5174260000003 2677.1484379999997 Q3321.6205680000003 2569.7055739999996 3321.6205680000003 2416.982 Q3321.6205680000003 2261.5837159999996 3215.5174260000003 2155.480574 Q3109.414284 2049.3774319999998 2954.016 2049.3774319999998 Q2801.292426 2049.3774319999998 2693.849562 2155.480574 Q2586.411432 2261.5837159999996 2586.411432 2416.982 Q2586.411432 2569.7055739999996 2693.849562 2677.1484379999997 Q2801.292426 2784.586568 2954.016 2784.586568 Z M1600.7121539999998 4105.169006 V3444.463562 Q1600.7121539999998 3428.4105680000002 1486.068876 3390.230858 Q1371.4208640000002 3352.0464139999995 1231.7678640000001 3244.811846 Q1092.114864 3137.5772779999998 978.498864 2941.01213 Q864.882864 2744.4517159999996 864.882864 2416.982 Q864.882864 1906.7420120000002 1267.48116 1571.759438 Q1670.074722 1236.7768640000002 2272.32 1236.7768640000002 Q2874.565278 1236.7768640000002 3277.15884 1571.759438 Q3679.7571359999997 1906.7420120000002 3679.7571359999997 2416.982 Q3679.7571359999997 2744.4517159999996 3563.774136 2941.01213 Q3447.791136 3137.5772779999998 3310.5051359999998 3244.811846 Q3173.2191359999997 3352.0464139999995 3057.236136 3390.230858 Q2941.253136 3428.4105680000002 2943.927846 3444.463562 V4105.169006 H2880.5395860000003 H2512.930284 H2031.7097159999998 H1664.100414 H1600.7121539999998 Z"/></g><g id="Medium-S" transform="matrix(1 0 0 1 1701.85 696)"><path d="M1169.193852 4484.712722 V3706.2774319999994 Q1174.855716 3704.01458 1059.436062 3640.7730739999997 Q944.021142 3577.531568 805.6037160000001 3432.013142 Q667.18629 3286.4947159999997 549.503784 3038.0638639999997 Q431.821278 2789.6282779999997 431.821278 2416.982 Q431.821278 1719.233006 961.1582219999999 1261.474142 Q1490.490432 803.7152780000001 2272.32 803.7152780000001 Q3054.1495680000003 803.7152780000001 3583.481778 1261.474142 Q4112.818722 1719.233006 4112.818722 2416.982 Q4112.818722 2789.6282779999997 3995.136216 3038.0638639999997 Q3877.4537100000002 3286.4947159999997 3739.0362840000003 3432.013142 Q3600.618858 3577.531568 3485.203938 3640.7730739999997 Q3369.7842840000003 3704.01458 3375.446148 3706.2774319999994 V4484.712722 H1169.193852 Z M1562.1158520000001 4114.42871 H1687.259142 V4484.712722 H2039.4261359999998 V4114.42871 H2505.2138640000003 V4484.712722 H2857.380858 V4114.42871 H2982.5241480000004 V3455.271284 Q2981.387988 3448.477994 3097.370988 3411.841568 Q3213.3539880000003 3375.205142 3350.6399880000004 3265.655648 Q3487.925988 3156.10142 3603.908988 2954.1347779999996 Q3719.8919880000003 2752.168136 3719.8919880000003 2416.982 Q3719.8919880000003 1889.75642 3306.4907040000003 1543.199216 Q2893.08942 1196.6420120000002 2272.32 1196.6420120000002 Q1651.55058 1196.6420120000002 1238.1492959999998 1543.199216 Q824.7480119999999 1889.75642 824.7480119999999 2416.982 Q824.7480119999999 2752.168136 938.364012 2954.1347779999996 Q1051.980012 3156.10142 1191.633012 3265.655648 Q1331.286012 3375.205142 1446.700932 3411.841568 Q1562.1158520000001 3448.477994 1562.1158520000001 3455.271284 V4114.42871 Z M1965.637278 3368.9278579999996 H2579.002722 L2272.32 2755.567148 L1965.637278 3368.9278579999996 Z M1590.624 2769.1489939999997 Q1738.3058640000002 2769.1489939999997 1840.550796 2666.3407159999997 Q1942.7909940000002 2563.5324379999997 1942.7909940000002 2416.982 Q1942.7909940000002 2269.300136 1840.550796 2167.055204 Q1738.3058640000002 2064.815006 1590.624 2064.815006 Q1444.073562 2064.815006 1341.265284 2167.055204 Q1238.4570059999999 2269.300136 1238.4570059999999 2416.982 Q1238.4570059999999 2563.5324379999997 1341.265284 2666.3407159999997 Q1444.073562 2769.1489939999997 1590.624 2769.1489939999997 Z M2954.016 2769.1489939999997 Q3101.697864 2769.1489939999997 3203.942796 2666.3407159999997 Q3306.182994 2563.5324379999997 3306.182994 2416.982 Q3306.182994 2269.300136 3203.942796 2167.055204 Q3101.697864 2064.815006 2954.016 2064.815006 Q2807.465562 2064.815006 2704.657284 2167.055204 Q2601.8490060000004 2269.300136 2601.8490060000004 2416.982 Q2601.8490060000004 2563.5324379999997 2704.657284 2666.3407159999997 Q2807.465562 2769.1489939999997 2954.016 2769.1489939999997 Z M1562.1158520000001 4114.42871 V3455.271284 Q1562.1158520000001 3448.477994 1446.700932 3411.841568 Q1331.286012 3375.205142 1191.633012 3265.655648 Q1051.980012 3156.10142 938.364012 2954.1347779999996 Q824.7480119999999 2752.168136 824.7480119999999 2416.982 Q824.7480119999999 1889.75642 1238.1492959999998 1543.199216 Q1651.55058 1196.6420120000002 2272.32 1196.6420120000002 Q2893.08942 1196.6420120000002 3306.4907040000003 1543.199216 Q3719.8919880000003 1889.75642 3719.8919880000003 2416.982 Q3719.8919880000003 2752.168136 3603.908988 2954.1347779999996 Q3487.925988 3156.10142 3350.6399880000004 3265.655648 Q3213.3539880000003 3375.205142 3097.370988 3411.841568 Q2981.387988 3448.477994 2982.5241480000004 3455.271284 V4114.42871 H2857.380858 H2505.2138640000003 H2039.4261359999998 H1687.259142 H1562.1158520000001 Z"/></g><g id="Regular-S" transform="matrix(1 0 0 1 1405.73 696)"><path d="M1192.968 4462.070000000001 V3690.428 Q1192.968 3690.428 1076.985 3628.886 Q961.002 3567.344 823.716 3422.957 Q686.43 3278.5699999999997 570.447 3032.402 Q454.464 2786.234 454.464 2416.982 Q454.464 1730.5520000000001 977.571 1278.4550000000002 Q1500.6779999999999 826.358 2272.32 826.358 Q3043.962 826.358 3567.069 1278.4550000000002 Q4090.176 1730.5520000000001 4090.176 2416.982 Q4090.176 2786.234 3974.193 3032.402 Q3858.21 3278.5699999999997 3720.924 3422.957 Q3583.638 3567.344 3467.655 3628.886 Q3351.672 3690.428 3351.672 3690.428 V4462.070000000001 H1192.968 Z M1533.816 4121.222000000001 H1704.24 V4462.070000000001 H2045.088 V4121.222000000001 H2499.552 V4462.070000000001 H2840.4 V4121.222000000001 H3010.824 V3463.196 Q3010.824 3463.196 3126.807 3427.691 Q3242.79 3392.1859999999997 3380.076 3280.937 Q3517.362 3169.6879999999996 3633.345 2963.759 Q3749.328 2757.83 3749.328 2416.982 Q3749.328 1877.306 3328.002 1522.256 Q2906.676 1167.2060000000001 2272.32 1167.2060000000001 Q1637.964 1167.2060000000001 1216.638 1522.256 Q795.312 1877.306 795.312 2416.982 Q795.312 2757.83 908.928 2963.759 Q1022.544 3169.6879999999996 1162.197 3280.937 Q1301.85 3392.1859999999997 1417.833 3427.691 Q1533.816 3463.196 1533.816 3463.196 V4121.222000000001 Z M1988.28 3325.91 H2556.36 L2272.32 2757.83 L1988.28 3325.91 Z M1590.624 2757.83 Q1732.644 2757.83 1832.058 2658.4159999999997 Q1931.472 2559.002 1931.472 2416.982 Q1931.472 2274.962 1832.058 2175.548 Q1732.644 2076.134 1590.624 2076.134 Q1448.604 2076.134 1349.19 2175.548 Q1249.776 2274.962 1249.776 2416.982 Q1249.776 2559.002 1349.19 2658.4159999999997 Q1448.604 2757.83 1590.624 2757.83 Z M2954.016 2757.83 Q3096.036 2757.83 3195.45 2658.4159999999997 Q3294.864 2559.002 3294.864 2416.982 Q3294.864 2274.962 3195.45 2175.548 Q3096.036 2076.134 2954.016 2076.134 Q2811.996 2076.134 2712.582 2175.548 Q2613.168 2274.962 2613.168 2416.982 Q2613.168 2559.002 2712.582 2658.4159999999997 Q2811.996 2757.83 2954.016 2757.83 Z M1533.816 4121.222000000001 V3463.196 Q1533.816 3463.196 1417.833 3427.691 Q1301.85 3392.1859999999997 1162.197 3280.937 Q1022.544 3169.6879999999996 908.928 2963.759 Q795.312 2757.83 795.312 2416.982 Q795.312 1877.306 1216.638 1522.256 Q1637.964 1167.2060000000001 2272.32 1167.2060000000001 Q2906.676 1167.2060000000001 3328.002 1522.256 Q3749.328 1877.306 3749.328 2416.982 Q3749.328 2757.83 3633.345 2963.759 Q3517.362 3169.6879999999996 3380.076 3280.937 Q3242.79 3392.1859999999997 3126.807 3427.691 Q3010.824 3463.196 3010.824 3463.196 V4121.222000000001 H2840.4 H2499.552 H2045.088 H1704.24 H1533.816 Z"/></g><g id="Light-S" transform="matrix(1 0 0 1 1109.75 696)"><path d="M1287.6527339999998 4367.385266 V3628.516748 Q1293.1157699999999 3632.157194 1177.13277 3578.809748 Q1061.14977 3525.462302 922.954842 3390.1787839999997 Q784.759914 3254.8999999999996 666.9543239999999 3017.835482 Q549.148734 2780.770964 549.148734 2416.982 Q549.148734 1770.611108 1045.702728 1345.8292880000001 Q1542.256722 921.0427340000001 2272.168512 921.0427340000001 Q3002.0803020000003 921.0427340000001 3498.785784 1345.8292880000001 Q3995.491266 1770.611108 3995.491266 2416.982 Q3995.491266 2780.770964 3877.685676 3017.835482 Q3759.880086 3254.8999999999996 3621.6851580000002 3390.1787839999997 Q3483.4902300000003 3525.462302 3367.50723 3578.809748 Q3251.52423 3632.157194 3256.987266 3628.8481279999996 V4367.385266 H1287.6527339999998 Z M1533.816 4121.222000000001 H1744.299108 V4367.385266 H2041.4475539999999 V4121.222000000001 H2503.192446 V4367.385266 H2800.340892 V4121.222000000001 H3010.824 V3463.196 Q3007.183554 3457.732964 3123.166554 3421.319036 Q3239.149554 3384.900374 3377.619054 3274.4798239999996 Q3516.088554 3164.0545399999996 3632.710644 2959.11968 Q3749.328 2754.1895539999996 3749.328 2416.982 Q3749.328 1877.306 3328.002 1522.256 Q2906.676 1167.2060000000001 2272.32 1167.2060000000001 Q1637.964 1167.2060000000001 1216.638 1522.256 Q795.312 1877.306 795.312 2416.982 Q795.312 2754.1895539999996 909.5623559999999 2959.11968 Q1023.817446 3164.0545399999996 1164.6539460000001 3274.4798239999996 Q1305.490446 3384.900374 1420.564518 3421.319036 Q1535.63859 3457.732964 1533.816 3463.196 V4121.222000000001 Z M2006.486964 3271.284374 H2538.153036 L2272.32 2739.623036 L2006.486964 3271.284374 Z M1590.945912 2721.411338 Q1718.077482 2721.411338 1806.56541 2632.601498 Q1895.0533380000002 2543.791658 1895.0533380000002 2416.660088 Q1895.0533380000002 2289.5285179999996 1806.243498 2201.0405899999996 Q1717.433658 2112.5526619999996 1590.3020880000001 2112.5526619999996 Q1463.170518 2112.5526619999996 1374.68259 2201.3625019999995 Q1286.1946619999999 2290.172342 1286.1946619999999 2417.303912 Q1286.1946619999999 2544.435482 1375.0045019999998 2632.92341 Q1463.8143420000001 2721.411338 1590.945912 2721.411338 Z M2954.337912 2721.411338 Q3081.469482 2721.411338 3169.95741 2632.601498 Q3258.445338 2543.791658 3258.445338 2416.660088 Q3258.445338 2289.5285179999996 3169.635498 2201.0405899999996 Q3080.825658 2112.5526619999996 2953.694088 2112.5526619999996 Q2826.562518 2112.5526619999996 2738.07459 2201.3625019999995 Q2649.5866619999997 2290.172342 2649.5866619999997 2417.303912 Q2649.5866619999997 2544.435482 2738.396502 2632.92341 Q2827.206342 2721.411338 2954.337912 2721.411338 Z M1533.816 4121.222000000001 V3463.196 Q1535.63859 3457.732964 1420.564518 3421.319036 Q1305.490446 3384.900374 1164.6539460000001 3274.4798239999996 Q1023.817446 3164.0545399999996 909.5623559999999 2959.11968 Q795.312 2754.1895539999996 795.312 2416.982 Q795.312 1877.306 1216.638 1522.256 Q1637.964 1167.2060000000001 2272.32 1167.2060000000001 Q2906.676 1167.2060000000001 3328.002 1522.256 Q3749.328 1877.306 3749.328 2416.982 Q3749.328 2754.1895539999996 3632.710644 2959.11968 Q3516.088554 3164.0545399999996 3377.619054 3274.4798239999996 Q3239.149554 3384.900374 3123.166554 3421.319036 Q3007.183554 3457.732964 3010.824 3463.196 V4121.222000000001 H2800.340892 V4033.8181579999996 H2503.192446 V4121.222000000001 H2041.4475539999999 V4033.8181579999996 H1744.299108 V4121.222000000001 H1533.816 Z"/></g><g id="Thin-S" transform="matrix(1 0 0 1 814.015 696)"><path d="M1382.328 4272.71 V3566.614964 Q1393.249338 3573.9005899999997 1277.2663380000001 3528.742964 Q1161.283338 3483.590072 1022.179482 3357.4100359999998 Q883.0708920000001 3231.23 763.447446 3003.268964 Q643.824 2775.3079279999997 643.824 2416.982 Q643.824 1810.665482 1113.824988 1413.189374 Q1583.825976 1015.7180000000001 2272.0170239999998 1015.7180000000001 Q2960.208072 1015.7180000000001 3430.512036 1413.189374 Q3900.816 1810.665482 3900.816 2416.982 Q3900.816 2775.3079279999997 3781.1925539999997 3003.268964 Q3661.569108 3231.23 3522.460518 3357.4100359999998 Q3383.3566619999997 3483.590072 3267.373662 3528.742964 Q3151.390662 3573.9005899999997 3162.312 3567.2777239999996 V4272.71 H1382.328 Z M1533.816 4121.222000000001 H1784.353482 V4272.71 H2037.807108 V4121.222000000001 H2506.832892 V4272.71 H2760.286518 V4121.222000000001 H3010.824 V3463.196 Q3003.543108 3452.2699279999997 3119.526108 3414.947072 Q3235.5091079999997 3377.619482 3375.162108 3268.022648 Q3514.819842 3158.42108 3632.071554 2954.485094 Q3749.328 2750.5491079999997 3749.328 2416.982 Q3749.328 1877.306 3328.002 1522.256 Q2906.676 1167.2060000000001 2272.32 1167.2060000000001 Q1637.964 1167.2060000000001 1216.638 1522.256 Q795.312 1877.306 795.312 2416.982 Q795.312 2750.5491079999997 910.201446 2954.485094 Q1025.086158 3158.42108 1167.1108920000001 3268.022648 Q1309.1308920000001 3377.619482 1423.296036 3414.947072 Q1537.456446 3452.2699279999997 1533.816 3463.196 V4121.222000000001 Z M2024.6939280000001 3216.663482 H2519.9460719999997 L2272.32 2721.416072 L2024.6939280000001 3216.663482 Z M1591.267824 2684.99741 Q1703.510964 2684.99741 1781.077554 2606.79173 Q1858.63941 2528.581316 1858.63941 2416.338176 Q1858.63941 2304.0950359999997 1780.4337300000002 2226.528446 Q1702.223316 2148.96659 1589.9801759999998 2148.96659 Q1477.737036 2148.96659 1400.170446 2227.1722699999996 Q1322.60859 2305.3826839999997 1322.60859 2417.6258239999997 Q1322.60859 2529.868964 1400.8142699999999 2607.4355539999997 Q1479.024684 2684.99741 1591.267824 2684.99741 Z M2954.659824 2684.99741 Q3066.902964 2684.99741 3144.469554 2606.79173 Q3222.03141 2528.581316 3222.03141 2416.338176 Q3222.03141 2304.0950359999997 3143.82573 2226.528446 Q3065.615316 2148.96659 2953.3721760000003 2148.96659 Q2841.129036 2148.96659 2763.562446 2227.1722699999996 Q2686.00059 2305.3826839999997 2686.00059 2417.6258239999997 Q2686.00059 2529.868964 2764.2062699999997 2607.4355539999997 Q2842.4166840000003 2684.99741 2954.659824 2684.99741 Z M1533.816 4121.222000000001 V3463.196 Q1537.456446 3452.2699279999997 1423.296036 3414.947072 Q1309.1308920000001 3377.619482 1167.1108920000001 3268.022648 Q1025.086158 3158.42108 910.201446 2954.485094 Q795.312 2750.5491079999997 795.312 2416.982 Q795.312 1877.306 1216.638 1522.256 Q1637.964 1167.2060000000001 2272.32 1167.2060000000001 Q2906.676 1167.2060000000001 3328.002 1522.256 Q3749.328 1877.306 3749.328 2416.982 Q3749.328 2750.5491079999997 3632.071554 2954.485094 Q3514.819842 3158.42108 3375.162108 3268.022648 Q3235.5091079999997 3377.619482 3119.526108 3414.947072 Q3003.543108 3452.2699279999997 3010.824 3463.196 V4121.222000000001 H2760.286518 V3946.4285179999997 H2506.832892 V4121.222000000001 H2037.807108 V3946.4285179999997 H1784.353482 V4121.222000000001 H1533.816 Z"/></g><g id="Ultralight-S" transform="matrix(1 0 0 1 517.792 696)"><path d="M1439.136 4215.902 V3529.4719999999998 Q1453.338 3538.9399999999996 1337.355 3498.701 Q1221.372 3458.462 1081.719 3337.745 Q942.066 3217.028 821.349 2994.5299999999997 Q700.632 2772.0319999999997 700.632 2416.982 Q700.632 1834.7 1154.703078 1453.613 Q1608.769422 1072.526 2271.9270779999997 1072.526 Q2935.08 1072.526 3389.544 1453.613 Q3844.008 1834.7 3844.008 2416.982 Q3844.008 2772.0319999999997 3723.291 2994.5299999999997 Q3602.574 3217.028 3462.921 3337.745 Q3323.268 3458.462 3207.285 3498.701 Q3091.302 3538.9399999999996 3105.504 3530.333588 V4215.902 H1439.136 Z M1533.816 4121.222000000001 H1808.388 V4215.902 H2035.62 V4121.222000000001 H2509.02 V4215.902 H2736.252 V4121.222000000001 H3010.824 V3463.196 Q3001.3559999999998 3448.9939999999997 3117.339 3411.122 Q3233.322 3373.25 3373.689834 3264.145502 Q3514.057668 3155.0410039999997 3631.692834 2951.701502 Q3749.328 2748.3619999999996 3749.328 2416.982 Q3749.328 1877.306 3328.002 1522.256 Q2906.676 1167.2060000000001 2272.32 1167.2060000000001 Q1637.964 1167.2060000000001 1216.638 1522.256 Q795.312 1877.306 795.312 2416.982 Q795.312 2748.3619999999996 910.580166 2951.701502 Q1025.848332 3155.0410039999997 1168.583166 3264.145502 Q1311.318 3373.25 1424.934 3411.122 Q1538.55 3448.9939999999997 1533.816 3463.196 V4121.222000000001 Z M2035.62 3183.89 H2509.02 L2272.32 2710.49 L2035.62 3183.89 Z M1591.4619180000002 2663.1499999999996 Q1694.772 2663.1499999999996 1765.782 2591.3020819999997 Q1836.792 2519.4541639999998 1836.792 2416.144082 Q1836.792 2312.834 1764.944082 2241.8239999999996 Q1693.096164 2170.814 1589.7860819999999 2170.814 Q1486.4759999999999 2170.814 1415.466 2242.661918 Q1344.456 2314.5098359999997 1344.456 2417.819918 Q1344.456 2521.1299999999997 1416.303918 2592.14 Q1488.151836 2663.1499999999996 1591.4619180000002 2663.1499999999996 Z M2954.8539180000002 2663.1499999999996 Q3058.164 2663.1499999999996 3129.174 2591.3020819999997 Q3200.184 2519.4541639999998 3200.184 2416.144082 Q3200.184 2312.834 3128.336082 2241.8239999999996 Q3056.488164 2170.814 2953.178082 2170.814 Q2849.868 2170.814 2778.858 2242.661918 Q2707.848 2314.5098359999997 2707.848 2417.819918 Q2707.848 2521.1299999999997 2779.695918 2592.14 Q2851.5438360000003 2663.1499999999996 2954.8539180000002 2663.1499999999996 Z M1533.816 4121.222000000001 V3463.196 Q1538.55 3448.9939999999997 1424.934 3411.122 Q1311.318 3373.25 1168.583166 3264.145502 Q1025.848332 3155.0410039999997 910.580166 2951.701502 Q795.312 2748.3619999999996 795.312 2416.982 Q795.312 1877.306 1216.638 1522.256 Q1637.964 1167.2060000000001 2272.32 1167.2060000000001 Q2906.676 1167.2060000000001 3328.002 1522.256 Q3749.328 1877.306 3749.328 2416.982 Q3749.328 2748.3619999999996 3631.692834 2951.701502 Q3514.057668 3155.0410039999997 3373.689834 3264.145502 Q3233.322 3373.25 3117.339 3411.122 Q3001.3559999999998 3448.9939999999997 3010.824 3463.196 V4121.222000000001 H2736.252 V3893.99 H2509.02 V4121.222000000001 H2035.62 V3893.99 H1808.388 V4121.222000000001 H1533.816 Z"/></g></g></svg>